<svg width="1200" height="760" viewBox="0 0 1200 760" fill="none" xmlns="http://www.w3.org/2000/svg">
  <rect width="1200" height="760" rx="36" fill="#081326"/>
  <rect x="28" y="28" width="1144" height="704" rx="28" fill="#0F1930" stroke="#243453"/>
  <rect x="56" y="56" width="220" height="648" rx="24" fill="#0B1428"/>
  <rect x="92" y="96" width="84" height="84" rx="22" fill="#16233F"/>
  <text x="196" y="130" fill="#DEE5FF" font-family="Arial, sans-serif" font-size="30" font-weight="700">FluxDesk</text>
  <text x="196" y="164" fill="#81ECFF" font-family="Arial, sans-serif" font-size="18">Service Platform</text>

  <rect x="92" y="228" width="148" height="16" rx="8" fill="#81ECFF" fill-opacity="0.25"/>
  <rect x="92" y="270" width="132" height="16" rx="8" fill="#A3AAC4" fill-opacity="0.24"/>
  <rect x="92" y="312" width="154" height="16" rx="8" fill="#A3AAC4" fill-opacity="0.24"/>
  <rect x="92" y="354" width="120" height="16" rx="8" fill="#A3AAC4" fill-opacity="0.24"/>
  <rect x="92" y="396" width="140" height="16" rx="8" fill="#A3AAC4" fill-opacity="0.24"/>

  <text x="320" y="110" fill="#DEE5FF" font-family="Arial, sans-serif" font-size="34" font-weight="700">Painel operacional</text>
  <text x="320" y="148" fill="#A3AAC4" font-family="Arial, sans-serif" font-size="20">Vis&atilde;o centralizada de chamados, SLA e produtividade da equipe.</text>

  <rect x="320" y="190" width="190" height="120" rx="24" fill="#111D34"/>
  <rect x="530" y="190" width="190" height="120" rx="24" fill="#111D34"/>
  <rect x="740" y="190" width="190" height="120" rx="24" fill="#111D34"/>
  <rect x="950" y="190" width="190" height="120" rx="24" fill="#111D34"/>

  <text x="348" y="232" fill="#A3AAC4" font-family="Arial, sans-serif" font-size="18">Chamados hoje</text>
  <text x="348" y="278" fill="#81ECFF" font-family="Arial, sans-serif" font-size="42" font-weight="700">128</text>

  <text x="558" y="232" fill="#A3AAC4" font-family="Arial, sans-serif" font-size="18">SLA cumprido</text>
  <text x="558" y="278" fill="#70AAFF" font-family="Arial, sans-serif" font-size="42" font-weight="700">96%</text>

  <text x="768" y="232" fill="#A3AAC4" font-family="Arial, sans-serif" font-size="18">T&eacute;cnicos ativos</text>
  <text x="768" y="278" fill="#34D399" font-family="Arial, sans-serif" font-size="42" font-weight="700">24</text>

  <text x="978" y="232" fill="#A3AAC4" font-family="Arial, sans-serif" font-size="18">Tempo m&eacute;dio</text>
  <text x="978" y="278" fill="#DEE5FF" font-family="Arial, sans-serif" font-size="42" font-weight="700">42m</text>

  <rect x="320" y="338" width="540" height="336" rx="28" fill="#111D34"/>
  <text x="352" y="382" fill="#DEE5FF" font-family="Arial, sans-serif" font-size="24" font-weight="700">Ordens de servi&ccedil;o</text>
  <rect x="352" y="410" width="476" height="2" fill="#243453"/>

  <rect x="352" y="440" width="140" height="18" rx="9" fill="#A3AAC4" fill-opacity="0.22"/>
  <rect x="528" y="440" width="96" height="18" rx="9" fill="#34D399" fill-opacity="0.24"/>
  <rect x="650" y="440" width="74" height="18" rx="9" fill="#70AAFF" fill-opacity="0.24"/>
  <rect x="748" y="440" width="80" height="18" rx="9" fill="#81ECFF" fill-opacity="0.24"/>

  <rect x="352" y="494" width="188" height="18" rx="9" fill="#A3AAC4" fill-opacity="0.22"/>
  <rect x="580" y="494" width="110" height="18" rx="9" fill="#FBBF24" fill-opacity="0.24"/>
  <rect x="712" y="494" width="116" height="18" rx="9" fill="#70AAFF" fill-opacity="0.24"/>

  <rect x="352" y="548" width="220" height="18" rx="9" fill="#A3AAC4" fill-opacity="0.22"/>
  <rect x="612" y="548" width="96" height="18" rx="9" fill="#34D399" fill-opacity="0.24"/>
  <rect x="726" y="548" width="102" height="18" rx="9" fill="#81ECFF" fill-opacity="0.24"/>

  <rect x="352" y="602" width="164" height="18" rx="9" fill="#A3AAC4" fill-opacity="0.22"/>
  <rect x="550" y="602" width="132" height="18" rx="9" fill="#FBBF24" fill-opacity="0.24"/>
  <rect x="706" y="602" width="122" height="18" rx="9" fill="#70AAFF" fill-opacity="0.24"/>

  <rect x="884" y="338" width="256" height="336" rx="28" fill="#111D34"/>
  <text x="916" y="382" fill="#DEE5FF" font-family="Arial, sans-serif" font-size="24" font-weight="700">Agenda</text>
  <rect x="916" y="416" width="192" height="18" rx="9" fill="#A3AAC4" fill-opacity="0.22"/>
  <rect x="916" y="458" width="160" height="62" rx="18" fill="#16233F"/>
  <rect x="916" y="542" width="192" height="18" rx="9" fill="#A3AAC4" fill-opacity="0.22"/>
  <rect x="916" y="584" width="180" height="62" rx="18" fill="#16233F"/>
</svg>
